<svg width="64" height="64" viewBox="0 0 64 64" fill="none" xmlns="http://www.w3.org/2000/svg">
<path d="M8.792 30.364L9.67 36.217C9.71521 36.5166 9.70231 36.8222 9.632 37.117C9.50222 37.6394 9.1954 38.1007 8.76375 38.4224C8.3321 38.7441 7.80231 38.9062 7.26457 38.8812C6.72682 38.8562 6.21436 38.6457 5.81441 38.2853C5.41446 37.925 5.15175 37.4372 5.071 36.905L4.194 31.053C4.1265 30.5989 4.1948 30.135 4.39031 29.7197C4.58582 29.3044 4.89979 28.9562 5.29274 28.7189C5.68568 28.4815 6.14004 28.3658 6.59863 28.3861C7.05722 28.4064 7.49956 28.5619 7.87 28.833C8.0082 28.9365 8.13522 29.0541 8.249 29.184C8.53857 29.5176 8.72694 29.927 8.792 30.364V30.364Z" fill="url(#paint0_linear_1_30)"/>
<path d="M47.56 42.1601L16.85 38.0801L11.03 37.3001L9.63 37.1201C9.70354 36.8258 9.71715 36.5197 9.67 36.2201L8.79 30.3601C8.72103 29.9248 8.53429 29.5168 8.25 29.1801L37.99 16.2601L39.69 15.5201L43 14.0801L47.56 42.1601Z" fill="url(#paint1_linear_1_30)"/>
<path d="M50.54 45.4501C49.9155 45.5571 49.274 45.4118 48.7565 45.0462C48.239 44.6806 47.8878 44.1245 47.78 43.5001L47.56 42.1601L43 14.0801L42.6 11.6201C42.545 11.3113 42.5516 10.9948 42.6195 10.6886C42.6874 10.3825 42.8152 10.0928 42.9955 9.83624C43.1758 9.5797 43.4051 9.36136 43.6702 9.19383C43.9353 9.02629 44.2309 8.91286 44.54 8.86007C44.6789 8.83684 44.8192 8.82348 44.96 8.82007C45.5214 8.8231 46.0641 9.02288 46.4934 9.38465C46.9228 9.74642 47.2117 10.2473 47.31 10.8001L52.48 42.6801C52.5899 43.3046 52.4472 43.9473 52.0834 44.4667C51.7196 44.9861 51.1645 45.3398 50.54 45.4501V45.4501Z" fill="url(#paint2_linear_1_30)"/>
<path d="M42.94 35.87C42.9594 35.9994 42.953 36.1314 42.9213 36.2583C42.8895 36.3852 42.833 36.5046 42.7549 36.6096C42.6768 36.7146 42.5788 36.8032 42.4664 36.8702C42.354 36.9372 42.2295 36.9813 42.1 37C42.0505 37.0083 42.0002 37.0117 41.95 37.01C41.7105 37.0103 41.4789 36.9247 41.2973 36.7687C41.1156 36.6128 40.9959 36.3968 40.96 36.16L38 16.38C37.9917 16.3406 37.9884 16.3003 37.99 16.26L39.69 15.52C39.8494 15.6668 39.9521 15.8651 39.98 16.08L42.94 35.87Z" fill="url(#paint3_linear_1_30)"/>
<path d="M20.415 56.231C20.0906 56.3451 19.7469 56.3941 19.4035 56.375C19.0602 56.3559 18.724 56.2692 18.4143 56.1199C18.1045 55.9706 17.8273 55.7616 17.5985 55.5049C17.3697 55.2482 17.1938 54.9489 17.081 54.6241L11.033 37.3L16.849 38.077L22.022 52.9001C22.1353 53.2243 22.1837 53.5677 22.1643 53.9106C22.1448 54.2535 22.058 54.5892 21.9088 54.8986C21.7595 55.2079 21.5508 55.4848 21.2945 55.7135C21.0382 55.9421 20.7393 56.118 20.415 56.231V56.231Z" fill="url(#paint4_linear_1_30)"/>
<path d="M53.011 21.366C52.7966 21.3663 52.5878 21.2976 52.4153 21.1702C52.2429 21.0427 52.116 20.8632 52.0534 20.6582C51.9908 20.4531 51.9957 20.2334 52.0675 20.0313C52.1392 19.8293 52.274 19.6556 52.452 19.536L56.941 16.518C57.1611 16.37 57.431 16.3156 57.6913 16.3666C57.9516 16.4176 58.181 16.5699 58.329 16.79C58.477 17.0102 58.5315 17.2801 58.4805 17.5404C58.4295 17.8007 58.2771 18.03 58.057 18.178L53.567 21.2C53.4025 21.3099 53.2088 21.3677 53.011 21.366V21.366Z" fill="url(#paint5_linear_1_30)"/>
<path d="M60.719 33.992C60.6378 33.9918 60.5569 33.982 60.478 33.963L55.227 32.663C55.0969 32.634 54.974 32.5793 54.8653 32.5021C54.7567 32.4249 54.6646 32.3268 54.5945 32.2135C54.5243 32.1002 54.4775 31.974 54.4568 31.8424C54.4361 31.7108 54.4419 31.5763 54.4739 31.4469C54.5059 31.3176 54.5634 31.1959 54.6431 31.0891C54.7228 30.9823 54.823 30.8925 54.9379 30.8249C55.0527 30.7574 55.1799 30.7135 55.312 30.6958C55.4441 30.6782 55.5784 30.6871 55.707 30.722L60.958 32.022C61.1953 32.0805 61.4029 32.2237 61.5418 32.4248C61.6806 32.6259 61.741 32.8708 61.7116 33.1134C61.6822 33.356 61.565 33.5794 61.3821 33.7415C61.1992 33.9035 60.9633 33.993 60.719 33.993V33.992Z" fill="url(#paint6_linear_1_30)"/>
<path d="M54.478 26.9999C54.2128 27.0118 53.9537 26.9179 53.7577 26.7388C53.5617 26.5597 53.4449 26.3101 53.433 26.0449C53.4211 25.7797 53.515 25.5206 53.6941 25.3246C53.8732 25.1286 54.1228 25.0118 54.388 24.9999L58.466 24.6269C58.5968 24.615 58.7286 24.629 58.854 24.6681C58.9794 24.7072 59.0959 24.7706 59.1968 24.8546C59.2977 24.9387 59.381 25.0418 59.442 25.1581C59.5031 25.2744 59.5406 25.4016 59.5525 25.5324C59.5644 25.6632 59.5504 25.7951 59.5113 25.9204C59.4722 26.0458 59.4088 26.1623 59.3248 26.2632C59.2407 26.3641 59.1375 26.4474 59.0213 26.5085C58.905 26.5695 58.7778 26.607 58.647 26.6189L54.569 26.9999C54.539 26.9999 54.508 26.9999 54.478 26.9999Z" fill="url(#paint7_linear_1_30)"/>
<defs>
<linearGradient id="paint0_linear_1_30" x1="5.647" y1="26.334" x2="7.709" y2="38.053" gradientUnits="userSpaceOnUse">
<stop stop-color="#F8D751"/>
<stop offset="0.505" stop-color="#F49500"/>
<stop offset="0.991" stop-color="#F25D00"/>
</linearGradient>
<linearGradient id="paint1_linear_1_30" x1="2.856" y1="32.3711" x2="50.574" y2="27.5891" gradientUnits="userSpaceOnUse">
<stop stop-color="#F8D751"/>
<stop offset="0.505" stop-color="#F49500"/>
<stop offset="0.991" stop-color="#F25D00"/>
</linearGradient>
<linearGradient id="paint2_linear_1_30" x1="51.097" y1="46.5921" x2="43.972" y2="7.59207" gradientUnits="userSpaceOnUse">
<stop stop-color="#F8D751"/>
<stop offset="0.505" stop-color="#F49500"/>
<stop offset="0.991" stop-color="#F25D00"/>
</linearGradient>
<linearGradient id="paint3_linear_1_30" x1="37.99" y1="26.265" x2="42.951" y2="26.265" gradientUnits="userSpaceOnUse">
<stop stop-color="white"/>
<stop offset="1" stop-color="#F1F2F2"/>
</linearGradient>
<linearGradient id="paint4_linear_1_30" x1="24.057" y1="60.8271" x2="11.589" y2="35.4211" gradientUnits="userSpaceOnUse">
<stop stop-color="#F8D751"/>
<stop offset="0.505" stop-color="#F49500"/>
<stop offset="0.991" stop-color="#F25D00"/>
</linearGradient>
<linearGradient id="paint5_linear_1_30" x1="52.01" y1="18.856" x2="58.499" y2="18.856" gradientUnits="userSpaceOnUse">
<stop stop-color="#F8D751"/>
<stop offset="0.85" stop-color="#F5A841"/>
<stop offset="1" stop-color="#F5AA42"/>
</linearGradient>
<linearGradient id="paint6_linear_1_30" x1="54.467" y1="32.342" x2="61.718" y2="32.342" gradientUnits="userSpaceOnUse">
<stop stop-color="#F8D751"/>
<stop offset="0.85" stop-color="#F5A841"/>
<stop offset="1" stop-color="#F5AA42"/>
</linearGradient>
<linearGradient id="paint7_linear_1_30" x1="53.478" y1="25.8139" x2="59.557" y2="25.8139" gradientUnits="userSpaceOnUse">
<stop stop-color="#F8D751"/>
<stop offset="0.85" stop-color="#F5A841"/>
<stop offset="1" stop-color="#F5AA42"/>
</linearGradient>
</defs>
</svg>
