<svg width="16" height="30" viewBox="0 0 16 30" fill="none" xmlns="http://www.w3.org/2000/svg">
<path d="M10.2617 0.09375C8.75 0.369141 7.40234 1.13672 6.54102 2.20898C6.10156 2.75977 5.60352 3.75 5.39258 4.48828C5.11719 5.45508 5.07031 6.07617 5.07031 8.77148V11.25H2.87305H0.675781V13.916V16.582H2.87305H5.07031V23.291V30H7.76562H10.4609V23.291V16.582L12.5527 16.5703L14.6504 16.5527L14.9492 14.1211C15.1191 12.7852 15.2656 11.5898 15.2832 11.4668L15.3125 11.25H12.8867H10.4609V9.15234C10.4609 6.85547 10.502 6.50977 10.7949 5.96484C10.9824 5.61328 11.3516 5.32617 11.7793 5.18555C12.2012 5.04492 13.0039 4.98633 14.4922 4.98047H15.793V2.58398V0.1875L15.459 0.152344C13.8652 -0.0175781 11.0586 -0.0527344 10.2617 0.09375Z" fill="#8A8A8D"/>
</svg>
