<svg width="30" height="30" viewBox="0 0 30 30" fill="none" xmlns="http://www.w3.org/2000/svg">
<g clip-path="url(#clip0_2_162)">
<path d="M6.03516 0.123047C3.79688 0.591797 1.94531 1.96289 0.884766 3.9375C0.480469 4.68164 0.216797 5.45508 0.0585938 6.35156C0.0234375 6.58008 0 9.58008 0 15.0176C0 23.1855 0 23.3438 0.123047 23.9238C0.445312 25.5176 1.20117 26.8945 2.34375 27.9668C3.39844 28.957 4.61719 29.584 6.07617 29.877C6.65625 30 6.81445 30 15 30C23.1855 30 23.3438 30 23.9238 29.877C25.5176 29.5547 26.8945 28.7988 27.9668 27.6562C28.957 26.6016 29.584 25.3828 29.877 23.9238C30 23.3438 30 23.1855 30 15.0176C30 9.58008 29.9766 6.58008 29.9414 6.35156C29.5195 3.91992 28.0898 1.93359 25.9629 0.832031C25.2832 0.480469 24.7207 0.28125 23.9238 0.123047C23.3438 0 23.1973 0 14.959 0.00585938C6.83789 0.00585938 6.57422 0.0117188 6.03516 0.123047ZM23.7012 2.68359C25.541 3.19922 26.8359 4.50586 27.3164 6.32812L27.4512 6.82617V15V23.1738L27.3164 23.6719C26.8301 25.5059 25.5059 26.8301 23.6719 27.3164L23.1738 27.4512H15H6.82617L6.32812 27.3164C4.49414 26.8301 3.16992 25.5059 2.68359 23.6719L2.54883 23.1738V15V6.82617L2.68359 6.32812C3.20508 4.35352 4.69922 2.9707 6.69727 2.60742C7.03711 2.54297 8.74805 2.53125 15.1758 2.53711L23.2324 2.54883L23.7012 2.68359Z" fill="#8A8A8D"/>
<path d="M22.4355 5.11529C22.248 5.19146 22.037 5.30864 21.955 5.3731C21.0351 6.0938 20.9882 7.50005 21.8554 8.28521C22.1542 8.55474 22.3417 8.64849 22.7694 8.73052C23.6249 8.90044 24.4628 8.47271 24.8378 7.68169C25.0546 7.2188 25.0546 6.49224 24.8495 6.0645C24.662 5.69536 24.3046 5.33794 23.9355 5.1563C23.5077 4.94536 22.8749 4.92779 22.4355 5.11529Z" fill="#8A8A8D"/>
<path d="M13.6699 7.58801C12.5977 7.78723 11.3613 8.32044 10.5059 8.95911C9.93164 9.38684 9.13477 10.213 8.77734 10.7521C8.18555 11.6486 7.76367 12.6974 7.58789 13.6935C7.47656 14.3615 7.47656 15.6388 7.58789 16.3068C7.8457 17.7599 8.53125 19.1193 9.55078 20.1798C10.6758 21.3517 12.1289 22.1368 13.6934 22.4122C14.3613 22.5236 15.6387 22.5236 16.3066 22.4122C19.3945 21.8673 21.8672 19.3947 22.4121 16.3068C22.5234 15.6388 22.5234 14.3615 22.4121 13.6935C22.2363 12.6915 21.8145 11.6486 21.2168 10.7521C20.8652 10.213 20.0625 9.38098 19.5059 8.96497C18.6211 8.30872 17.3965 7.78137 16.3066 7.58801C15.6797 7.48255 14.2676 7.48255 13.6699 7.58801ZM16.2012 10.1954C17.9766 10.6525 19.3301 12.0001 19.8105 13.799C19.9102 14.1622 19.9395 14.4376 19.9395 15.0001C19.9395 15.5626 19.9102 15.838 19.8105 16.2013C19.3301 18.0001 18 19.3243 16.2012 19.8107C15.5391 19.9923 14.4609 19.9923 13.7988 19.8107C12 19.3243 10.6699 18.0001 10.1895 16.2013C10.0137 15.545 10.0137 14.4552 10.1895 13.799C10.9043 11.1212 13.5762 9.52161 16.2012 10.1954Z" fill="#8A8A8D"/>
</g>
<defs>
<clipPath id="clip0_2_162">
<rect width="30" height="30" fill="white"/>
</clipPath>
</defs>
</svg>
