<svg width="30" height="30" viewBox="0 0 30 30" fill="none" xmlns="http://www.w3.org/2000/svg">
<path d="M3.23449 1.64062C1.9923 1.96875 1.10168 2.95312 0.9259 4.19531C0.7384 5.58984 1.38879 6.85547 2.60754 7.44141C3.19347 7.72266 3.53918 7.79297 4.3009 7.79297C5.94738 7.79297 7.12511 7.01953 7.59386 5.625C7.76378 5.12109 7.7462 4.14258 7.54698 3.59766C7.1837 2.56641 6.39269 1.86328 5.32043 1.61133C4.79308 1.48828 3.76769 1.5 3.23449 1.64062Z" fill="#8A8A8D"/>
<path d="M20.9473 9.9375C19.5645 10.248 18.041 11.2207 16.9453 12.5039L16.6992 12.791V11.5195V10.2539H13.6523H10.6055V19.3359V28.418H13.6523H16.6992V23.127C16.6992 20.0039 16.7227 17.6719 16.7578 17.4316C16.8516 16.7871 17.2031 16.125 17.748 15.5801C18.416 14.9121 19.0488 14.6484 19.9805 14.6484C21.4512 14.6484 22.3477 15.3867 22.8047 16.9688L22.9395 17.4316L22.957 22.9219L22.9746 28.418H26.0156H29.0625V22.7637C29.0625 19.166 29.0391 16.8984 28.998 16.5352C28.7754 14.4551 28.1309 12.9258 26.9883 11.7305C26.1797 10.8867 25.2539 10.3594 24.0293 10.0371C23.5488 9.9082 23.3086 9.88477 22.4121 9.86719C21.6094 9.84961 21.2578 9.86719 20.9473 9.9375Z" fill="#8A8A8D"/>
<path d="M1.23047 19.3359V28.418H4.27734H7.32422V19.3359V10.2539H4.27734H1.23047V19.3359Z" fill="#8A8A8D"/>
</svg>
