<svg width="30" height="26" viewBox="0 0 30 26" fill="none" xmlns="http://www.w3.org/2000/svg">
<path d="M28.1836 0.543118C28.0371 0.584133 25.7168 1.4689 23.0273 2.50015C20.3379 3.5314 14.4727 5.77554 9.99023 7.49234C5.50781 9.20914 1.62305 10.6974 1.34766 10.8087C0.421875 11.1837 0 11.5705 0 12.0627C0 12.3791 0.146484 12.5841 0.527344 12.7892C0.785156 12.9298 7.59961 15.0978 7.85156 15.1212C7.89844 15.1271 11.502 12.9005 15.8613 10.1701C20.2148 7.44546 23.8652 5.17203 23.9707 5.11343C24.2051 4.99624 24.5742 4.97281 24.6797 5.07828C24.7383 5.13687 24.7324 5.17789 24.668 5.28921C24.6211 5.36539 21.6914 8.01968 18.1641 11.1837L11.748 16.9435L11.5371 19.9084C11.4199 21.5373 11.3027 23.1193 11.2852 23.4123L11.2441 23.9572H11.502C11.9707 23.9572 12.2461 23.7404 14.1738 21.8947L15.9902 20.1544L19.4648 22.6974C21.7559 24.3791 23.0508 25.2873 23.2617 25.3752C23.4727 25.4572 23.7188 25.5041 23.9648 25.5041C24.5801 25.5099 24.9434 25.2404 25.248 24.5431C25.3066 24.3966 26.4082 19.3752 27.6855 13.381C29.9766 2.63492 30.0117 2.47671 29.9883 1.92007C29.9707 1.41617 29.9473 1.32241 29.7891 1.07046C29.4785 0.566555 28.8223 0.349758 28.1836 0.543118Z" fill="#8A8A8D"/>
</svg>
