<svg width="30" height="30" viewBox="0 0 30 30" fill="none" xmlns="http://www.w3.org/2000/svg">
<path d="M10.4885 4.92199C7.42402 5.0216 5.25019 5.1798 4.23652 5.38488C2.97089 5.64269 1.93378 6.55675 1.53534 7.76378C1.09003 9.09386 0.808782 13.172 0.931829 16.3888C1.07245 19.8927 1.34784 21.6446 1.90448 22.4825C2.56073 23.4728 3.39863 23.9591 4.80488 24.1642C7.30683 24.5275 13.6818 24.6974 19.0139 24.5509C23.3498 24.4278 25.4885 24.2403 26.3967 23.9005C26.8361 23.7364 27.4865 23.2618 27.8088 22.8693C28.4767 22.0548 28.7111 21.088 28.9572 18.1935C29.0568 17.0216 29.0568 12.34 28.9572 11.1622C28.8166 9.463 28.6467 8.40831 28.4123 7.69347C28.09 6.72081 27.1408 5.80675 26.133 5.50792C25.3654 5.27355 23.6428 5.09777 20.9767 4.98058C19.1545 4.89855 12.4514 4.85753 10.4885 4.92199ZM15.7971 12.6446C17.6955 13.7345 19.2892 14.6544 19.342 14.6837C19.4182 14.7247 18.6096 15.211 15.8732 16.7872C13.9103 17.9122 12.2756 18.8439 12.2463 18.8556C12.2053 18.8732 12.1877 17.4318 12.1877 14.7364C12.1877 11.2443 12.1994 10.5997 12.2697 10.6232C12.3107 10.6407 13.8986 11.5489 15.7971 12.6446Z" fill="#8A8A8D"/>
</svg>
